<?xml version="1.0" encoding="utf-8" ?>
<svg baseProfile="tiny" height="1024" version="1.2" viewBox="0 0 6626 7146" width="949" xmlns="http://www.w3.org/2000/svg" xmlns:ev="http://www.w3.org/2001/xml-events" xmlns:xlink="http://www.w3.org/1999/xlink"><defs /><line stroke="#333" stroke-width="1" x1="2837" x2="2869" y1="357" y2="357" /><line stroke="#333" stroke-width="1" x1="2965" x2="3093" y1="357" y2="485" /><line stroke="#333" stroke-width="1" x1="3093" x2="3253" y1="485" y2="549" /><line stroke="#333" stroke-width="1" x1="3381" x2="3541" y1="549" y2="485" /><line stroke="#333" stroke-width="1" x1="3541" x2="3669" y1="485" y2="357" /><line stroke="#333" stroke-width="1" x1="3669" x2="3797" y1="357" y2="357" /><line stroke="#333" stroke-width="1" x1="3797" x2="3669" y1="165" y2="165" /><line stroke="#333" stroke-width="1" x1="3669" x2="3541" y1="165" y2="37" /><line stroke="#333" stroke-width="1" x1="3541" x2="3381" y1="37" y2="5" /><line stroke="#333" stroke-width="1" x1="3381" x2="3253" y1="5" y2="5" /><line stroke="#333" stroke-width="1" x1="3253" x2="3093" y1="5" y2="37" /><line stroke="#333" stroke-width="1" x1="3093" x2="2965" y1="37" y2="165" /><line stroke="#333" stroke-width="1" x1="2869" x2="2837" y1="165" y2="165" /><line stroke="#999" stroke-width="1" x1="3221" x2="3221" y1="229" y2="293" /><line stroke="#999" stroke-width="1" x1="3221" x2="3285" y1="293" y2="357" /><line stroke="#999" stroke-width="1" x1="3285" x2="3349" y1="357" y2="357" /><line stroke="#999" stroke-width="1" x1="3349" x2="3413" y1="357" y2="293" /><line stroke="#999" stroke-width="1" x1="3413" x2="3413" y1="293" y2="229" /><line stroke="#999" stroke-width="1" x1="3413" x2="3349" y1="229" y2="165" /><line stroke="#999" stroke-width="1" x1="3349" x2="3285" y1="165" y2="165" /><line stroke="#999" stroke-width="1" x1="3285" x2="3221" y1="165" y2="229" /><line stroke="#333" stroke-width="1" x1="3253" x2="3253" y1="549" y2="581" /><line stroke="#333" stroke-width="1" x1="3253" x2="3253" y1="581" y2="613" /><line stroke="#333" stroke-width="1" x1="3253" x2="3253" y1="613" y2="645" /><line stroke="#333" stroke-width="1" x1="3253" x2="3253" y1="645" y2="677" /><line stroke="#333" stroke-width="1" x1="3253" x2="3253" y1="677" y2="709" /><line stroke="#333" stroke-width="1" x1="3253" x2="3253" y1="709" y2="741" /><line stroke="#333" stroke-width="1" x1="3253" x2="3253" y1="741" y2="773" /><line stroke="#333" stroke-width="1" x1="3253" x2="3253" y1="773" y2="805" /><line stroke="#333" stroke-width="1" x1="3253" x2="3253" y1="805" y2="837" /><line stroke="#333" stroke-width="1" x1="3253" x2="3253" y1="837" y2="869" /><line stroke="#333" stroke-width="1" x1="3253" x2="3253" y1="869" y2="901" /><line stroke="#333" stroke-width="1" x1="3253" x2="3253" y1="901" y2="933" /><line stroke="#333" stroke-width="1" x1="3381" x2="3381" y1="933" y2="901" /><line stroke="#999" stroke-width="1" x1="3381" x2="3381" y1="901" y2="869" /><line stroke="#333" stroke-width="1" x1="3381" x2="3381" y1="837" y2="805" /><line stroke="#333" stroke-width="1" x1="3381" x2="3381" y1="805" y2="773" /><line stroke="#333" stroke-width="1" x1="3381" x2="3381" y1="773" y2="741" /><line stroke="#333" stroke-width="1" x1="3381" x2="3381" y1="741" y2="709" /><line stroke="#333" stroke-width="1" x1="3381" x2="3381" y1="709" y2="677" /><line stroke="#333" stroke-width="1" x1="3381" x2="3381" y1="677" y2="645" /><line stroke="#333" stroke-width="1" x1="3381" x2="3381" y1="645" y2="613" /><line stroke="#333" stroke-width="1" x1="3381" x2="3381" y1="613" y2="581" /><line stroke="#333" stroke-width="1" x1="3381" x2="3381" y1="581" y2="549" /><line stroke="#333" stroke-width="1" x1="3253" x2="3221" y1="933" y2="933" /><line stroke="#333" stroke-width="1" x1="3413" x2="3381" y1="933" y2="933" /><line stroke="#999" stroke-width="1" x1="2869" x2="2869" y1="165" y2="357" /><line stroke="#999" stroke-width="1" x1="3669" x2="3669" y1="357" y2="165" /><line stroke="#333" stroke-width="1" x1="3797" x2="3861" y1="357" y2="357" /><line stroke="#333" stroke-width="1" x1="3861" x2="3861" y1="357" y2="165" /><line stroke="#333" stroke-width="1" x1="3861" x2="3797" y1="165" y2="165" /><line stroke="#999" stroke-width="1" x1="3797" x2="3797" y1="357" y2="165" /><line stroke="#333" stroke-width="1" x1="2837" x2="2677" y1="165" y2="165" /><line stroke="#333" stroke-width="1" x1="2677" x2="2677" y1="165" y2="357" /><line stroke="#333" stroke-width="1" x1="2677" x2="2837" y1="357" y2="357" /><line stroke="#333" stroke-width="1" x1="3541" x2="3541" y1="1317" y2="1253" /><line stroke="#333" stroke-width="1" x1="3541" x2="3541" y1="1445" y2="1413" /><line stroke="#333" stroke-width="1" x1="3093" x2="3093" y1="1413" y2="1445" /><line stroke="#333" stroke-width="1" x1="3093" x2="3093" y1="1253" y2="1317" /><line stroke="#999" stroke-width="1" x1="3381" x2="3253" y1="549" y2="549" /><line stroke="#999" stroke-width="1" x1="3381" x2="3253" y1="581" y2="581" /><line stroke="#999" stroke-width="1" x1="3381" x2="3253" y1="613" y2="613" /><line stroke="#999" stroke-width="1" x1="3381" x2="3253" y1="645" y2="645" /><line stroke="#999" stroke-width="1" x1="3381" x2="3253" y1="677" y2="677" /><line stroke="#999" stroke-width="1" x1="3381" x2="3253" y1="709" y2="709" /><line stroke="#999" stroke-width="1" x1="3381" x2="3253" y1="741" y2="741" /><line stroke="#999" stroke-width="1" x1="3381" x2="3253" y1="773" y2="773" /><line stroke="#999" stroke-width="1" x1="3381" x2="3253" y1="805" y2="805" /><line stroke="#999" stroke-width="1" x1="3381" x2="3253" y1="837" y2="837" /><line stroke="#999" stroke-width="1" x1="3381" x2="3253" y1="869" y2="869" /><line stroke="#999" stroke-width="1" x1="3381" x2="3253" y1="901" y2="901" /><line stroke="#999" stroke-width="1" x1="3381" x2="3253" y1="933" y2="933" /><line stroke="#999" stroke-width="1" x1="3541" x2="3541" y1="1413" y2="1317" /><line stroke="#999" stroke-width="1" x1="3093" x2="3093" y1="1317" y2="1413" /><line stroke="#333" stroke-width="1" x1="3061" x2="3061" y1="1445" y2="1413" /><line stroke="#333" stroke-width="1" x1="3061" x2="3093" y1="1413" y2="1413" /><line stroke="#333" stroke-width="1" x1="3061" x2="3061" y1="1317" y2="1253" /><line stroke="#333" stroke-width="1" x1="3093" x2="3061" y1="1317" y2="1317" /><line stroke="#333" stroke-width="1" x1="3541" x2="3573" y1="1413" y2="1413" /><line stroke="#333" stroke-width="1" x1="3573" x2="3573" y1="1413" y2="1445" /><line stroke="#333" stroke-width="1" x1="3573" x2="3541" y1="1317" y2="1317" /><line stroke="#333" stroke-width="1" x1="3573" x2="3573" y1="1253" y2="1317" /><line stroke="#333" stroke-width="1" x1="3093" x2="3157" y1="1445" y2="1445" /><line stroke="#333" stroke-width="1" x1="3157" x2="3157" y1="1445" y2="1509" /><line stroke="#333" stroke-width="1" x1="3157" x2="3221" y1="1509" y2="1509" /><line stroke="#333" stroke-width="1" x1="3221" x2="3221" y1="1509" y2="1573" /><line stroke="#333" stroke-width="1" x1="3413" x2="3413" y1="1573" y2="1509" /><line stroke="#333" stroke-width="1" x1="3413" x2="3477" y1="1509" y2="1509" /><line stroke="#333" stroke-width="1" x1="3477" x2="3477" y1="1509" y2="1445" /><line stroke="#333" stroke-width="1" x1="3477" x2="3541" y1="1445" y2="1445" /><line stroke="#333" stroke-width="1" x1="3541" x2="3477" y1="1253" y2="1253" /><line stroke="#333" stroke-width="1" x1="3477" x2="3477" y1="1253" y2="1189" /><line stroke="#333" stroke-width="1" x1="3477" x2="3413" y1="1189" y2="1189" /><line stroke="#333" stroke-width="1" x1="3221" x2="3157" y1="1189" y2="1189" /><line stroke="#333" stroke-width="1" x1="3157" x2="3157" y1="1189" y2="1253" /><line stroke="#333" stroke-width="1" x1="3157" x2="3093" y1="1253" y2="1253" /><line stroke="#999" stroke-width="1" x1="3221" x2="3157" y1="1253" y2="1253" /><line stroke="#999" stroke-width="1" x1="3221" x2="3221" y1="1189" y2="1253" /><line stroke="#999" stroke-width="1" x1="3413" x2="3413" y1="1253" y2="1189" /><line stroke="#999" stroke-width="1" x1="3477" x2="3413" y1="1253" y2="1253" /><line stroke="#999" stroke-width="1" x1="3413" x2="3413" y1="1509" y2="1445" /><line stroke="#999" stroke-width="1" x1="3413" x2="3477" y1="1445" y2="1445" /><line stroke="#999" stroke-width="1" x1="3157" x2="3221" y1="1445" y2="1445" /><line stroke="#999" stroke-width="1" x1="3221" x2="3221" y1="1445" y2="1509" /><line stroke="#999" stroke-width="1" x1="3221" x2="3221" y1="2085" y2="2917" /><line stroke="#999" stroke-width="1" x1="3413" x2="3413" y1="2917" y2="2085" /><line stroke="#999" stroke-width="1" x1="2613" x2="2885" y1="2533" y2="3373" /><line stroke="#999" stroke-width="1" x1="2885" x2="2229" y1="3373" y2="3877" /><line stroke="#999" stroke-width="1" x1="2229" x2="3061" y1="3877" y2="3877" /><line stroke="#999" stroke-width="1" x1="3317" x2="3573" y1="4653" y2="3877" /><line stroke="#999" stroke-width="1" x1="3573" x2="4405" y1="3877" y2="3877" /><line stroke="#999" stroke-width="1" x1="4405" x2="3741" y1="3877" y2="3373" /><line stroke="#999" stroke-width="1" x1="3029" x2="3221" y1="1893" y2="2085" /><line stroke="#999" stroke-width="1" x1="3413" x2="3605" y1="2085" y2="1893" /><line stroke="#999" stroke-width="1" x1="3221" x2="3413" y1="1573" y2="1573" /><line stroke="#333" stroke-width="1" x1="3413" x2="3413" y1="1189" y2="1125" /><line stroke="#333" stroke-width="1" x1="3413" x2="3381" y1="1125" y2="1125" /><line stroke="#333" stroke-width="1" x1="3381" x2="3381" y1="1125" y2="1109" /><line stroke="#333" stroke-width="1" x1="3381" x2="3381" y1="1109" y2="1093" /><line stroke="#333" stroke-width="1" x1="3381" x2="3381" y1="1093" y2="1077" /><line stroke="#333" stroke-width="1" x1="3381" x2="3413" y1="1077" y2="1077" /><line stroke="#333" stroke-width="1" x1="3413" x2="3413" y1="1077" y2="933" /><line stroke="#333" stroke-width="1" x1="3221" x2="3221" y1="933" y2="1077" /><line stroke="#333" stroke-width="1" x1="3221" x2="3253" y1="1077" y2="1077" /><line stroke="#333" stroke-width="1" x1="3253" x2="3253" y1="1077" y2="1093" /><line stroke="#333" stroke-width="1" x1="3253" x2="3253" y1="1093" y2="1109" /><line stroke="#333" stroke-width="1" x1="3253" x2="3253" y1="1109" y2="1125" /><line stroke="#333" stroke-width="1" x1="3253" x2="3221" y1="1125" y2="1125" /><line stroke="#333" stroke-width="1" x1="3221" x2="3221" y1="1125" y2="1189" /><line stroke="#999" stroke-width="1" x1="3253" x2="3381" y1="1093" y2="1093" /><line stroke="#999" stroke-width="1" x1="3381" x2="3253" y1="1109" y2="1109" /><line stroke="#999" stroke-width="1" x1="3381" x2="3253" y1="1125" y2="1125" /><line stroke="#999" stroke-width="1" x1="3253" x2="3381" y1="1077" y2="1077" /><line stroke="#999" stroke-width="1" x1="3061" x2="3317" y1="3877" y2="4653" /><line stroke="#333" stroke-width="1" x1="3381" x2="3389" y1="901" y2="901" /><line stroke="#333" stroke-width="1" x1="3389" x2="3381" y1="837" y2="837" /><line stroke="#999" stroke-width="1" x1="3389" x2="3389" y1="837" y2="901" /><line stroke="#333" stroke-width="1" x1="3389" x2="3445" y1="901" y2="901" /><line stroke="#333" stroke-width="1" x1="3445" x2="3445" y1="901" y2="837" /><line stroke="#333" stroke-width="1" x1="3445" x2="3389" y1="837" y2="837" /><line stroke="#999" stroke-width="1" x1="3381" x2="3381" y1="869" y2="837" /><line stroke="#999" stroke-width="1" x1="2837" x2="2837" y1="293" y2="229" /><line stroke="#999" stroke-width="1" x1="2837" x2="2837" y1="357" y2="293" /><line stroke="#999" stroke-width="1" x1="2837" x2="2837" y1="229" y2="165" /><line stroke="#333" stroke-width="1" x1="2869" x2="2901" y1="357" y2="357" /><line stroke="#333" stroke-width="1" x1="2901" x2="2933" y1="357" y2="357" /><line stroke="#333" stroke-width="1" x1="2933" x2="2965" y1="357" y2="357" /><line stroke="#333" stroke-width="1" x1="2965" x2="2933" y1="165" y2="165" /><line stroke="#333" stroke-width="1" x1="2933" x2="2901" y1="165" y2="165" /><line stroke="#333" stroke-width="1" x1="2901" x2="2869" y1="165" y2="165" /><line stroke="#999" stroke-width="1" x1="2965" x2="2965" y1="165" y2="357" /><line stroke="#999" stroke-width="1" x1="2933" x2="2933" y1="165" y2="357" /><line stroke="#999" stroke-width="1" x1="2901" x2="2901" y1="165" y2="357" /><line stroke="#333" stroke-width="1" x1="2965" x2="3061" y1="1573" y2="1445" /><line stroke="#333" stroke-width="1" x1="2829" x2="2965" y1="1573" y2="1573" /><line stroke="#333" stroke-width="1" x1="2709" x2="2829" y1="1445" y2="1573" /><line stroke="#333" stroke-width="1" x1="2709" x2="2709" y1="1253" y2="1445" /><line stroke="#333" stroke-width="1" x1="2837" x2="2709" y1="1125" y2="1253" /><line stroke="#333" stroke-width="1" x1="2965" x2="2837" y1="1125" y2="1125" /><line stroke="#333" stroke-width="1" x1="3061" x2="2965" y1="1253" y2="1125" /><line stroke="#333" stroke-width="1" x1="3573" x2="3669" y1="1445" y2="1573" /><line stroke="#333" stroke-width="1" x1="3669" x2="3797" y1="1573" y2="1573" /><line stroke="#333" stroke-width="1" x1="3797" x2="3925" y1="1573" y2="1445" /><line stroke="#333" stroke-width="1" x1="3925" x2="3925" y1="1445" y2="1253" /><line stroke="#333" stroke-width="1" x1="3925" x2="3797" y1="1253" y2="1125" /><line stroke="#333" stroke-width="1" x1="3797" x2="3669" y1="1125" y2="1125" /><line stroke="#333" stroke-width="1" x1="3669" x2="3573" y1="1125" y2="1253" /><line stroke="#333" stroke-width="1" x1="3029" x2="2141" y1="1893" y2="1229" /><line stroke="#333" stroke-width="1" x1="2141" x2="5" y1="1229" y2="2277" /><line stroke="#333" stroke-width="1" x1="5" x2="1285" y1="2277" y2="6533" /><line stroke="#333" stroke-width="1" x1="1285" x2="5173" y1="6533" y2="6533" /><line stroke="#333" stroke-width="1" x1="5173" x2="6621" y1="6533" y2="2213" /><line stroke="#333" stroke-width="1" x1="6621" x2="4381" y1="2213" y2="1229" /><line stroke="#333" stroke-width="1" x1="4381" x2="3605" y1="1229" y2="1893" /><line stroke="#999" stroke-width="1" x1="3221" x2="3221" y1="2917" y2="2981" /><line stroke="#999" stroke-width="1" x1="3413" x2="3413" y1="2981" y2="2917" /><line stroke="#999" stroke-width="1" x1="3413" x2="3221" y1="2981" y2="2981" /><line stroke="#999" stroke-width="1" x1="3349" x2="3413" y1="2917" y2="2917" /><line stroke="#999" stroke-width="1" x1="4021" x2="3413" y1="2533" y2="2981" /><line stroke="#999" stroke-width="1" x1="3741" x2="4021" y1="3373" y2="2533" /><line stroke="#999" stroke-width="1" x1="3221" x2="2613" y1="2981" y2="2533" /><line stroke="#333" stroke-width="1" x1="3149" x2="3173" y1="3285" y2="3285" /><line stroke="#333" stroke-width="1" x1="3173" x2="3173" y1="3285" y2="3309" /><line stroke="#333" stroke-width="1" x1="3173" x2="3173" y1="3309" y2="3317" /><line stroke="#333" stroke-width="1" x1="3173" x2="3173" y1="3317" y2="3397" /><line stroke="#333" stroke-width="1" x1="3173" x2="3237" y1="3397" y2="3397" /><line stroke="#333" stroke-width="1" x1="3237" x2="3237" y1="3397" y2="3317" /><line stroke="#333" stroke-width="1" x1="3237" x2="3237" y1="3317" y2="3309" /><line stroke="#333" stroke-width="1" x1="3237" x2="3237" y1="3309" y2="3285" /><line stroke="#333" stroke-width="1" x1="3237" x2="3261" y1="3285" y2="3285" /><line stroke="#333" stroke-width="1" x1="3261" x2="3277" y1="3285" y2="3365" /><line stroke="#333" stroke-width="1" x1="3277" x2="3237" y1="3365" y2="3429" /><line stroke="#333" stroke-width="1" x1="3237" x2="3173" y1="3429" y2="3429" /><line stroke="#333" stroke-width="1" x1="3173" x2="3109" y1="3429" y2="3365" /><line stroke="#333" stroke-width="1" x1="3109" x2="3149" y1="3365" y2="3285" /><line stroke="#999" stroke-width="1" x1="3173" x2="3237" y1="3285" y2="3285" /><line stroke="#999" stroke-width="1" x1="3173" x2="3237" y1="3309" y2="3309" /><line stroke="#999" stroke-width="1" x1="3237" x2="3173" y1="3317" y2="3317" /><line stroke="#999" stroke-width="1" x1="3149" x2="3149" y1="3285" y2="3237" /><line stroke="#999" stroke-width="1" x1="3149" x2="3261" y1="3237" y2="3237" /><line stroke="#999" stroke-width="1" x1="3261" x2="3261" y1="3237" y2="3285" /><line stroke="#999" stroke-width="1" x1="3149" x2="3093" y1="3237" y2="3173" /><line stroke="#999" stroke-width="1" x1="3093" x2="3093" y1="3173" y2="3109" /><line stroke="#999" stroke-width="1" x1="3093" x2="3221" y1="3109" y2="2981" /><line stroke="#333" stroke-width="1" x1="3373" x2="3397" y1="3285" y2="3285" /><line stroke="#333" stroke-width="1" x1="3397" x2="3397" y1="3285" y2="3309" /><line stroke="#333" stroke-width="1" x1="3397" x2="3397" y1="3309" y2="3317" /><line stroke="#333" stroke-width="1" x1="3397" x2="3397" y1="3317" y2="3397" /><line stroke="#333" stroke-width="1" x1="3397" x2="3461" y1="3397" y2="3397" /><line stroke="#999" stroke-width="1" x1="3461" x2="3461" y1="3397" y2="3317" /><line stroke="#333" stroke-width="1" x1="3461" x2="3461" y1="3317" y2="3309" /><line stroke="#333" stroke-width="1" x1="3461" x2="3461" y1="3309" y2="3285" /><line stroke="#333" stroke-width="1" x1="3461" x2="3485" y1="3285" y2="3285" /><line stroke="#333" stroke-width="1" x1="3485" x2="3525" y1="3285" y2="3365" /><line stroke="#333" stroke-width="1" x1="3525" x2="3461" y1="3365" y2="3429" /><line stroke="#333" stroke-width="1" x1="3461" x2="3397" y1="3429" y2="3429" /><line stroke="#333" stroke-width="1" x1="3397" x2="3357" y1="3429" y2="3365" /><line stroke="#333" stroke-width="1" x1="3357" x2="3373" y1="3365" y2="3285" /><line stroke="#999" stroke-width="1" x1="3397" x2="3461" y1="3285" y2="3285" /><line stroke="#999" stroke-width="1" x1="3397" x2="3461" y1="3309" y2="3309" /><line stroke="#999" stroke-width="1" x1="3461" x2="3397" y1="3317" y2="3317" /><line stroke="#999" stroke-width="1" x1="3373" x2="3373" y1="3285" y2="3237" /><line stroke="#999" stroke-width="1" x1="3373" x2="3485" y1="3237" y2="3237" /><line stroke="#999" stroke-width="1" x1="3485" x2="3485" y1="3237" y2="3285" /><line stroke="#999" stroke-width="1" x1="3317" x2="3261" y1="3197" y2="3237" /><line stroke="#999" stroke-width="1" x1="3093" x2="3541" y1="3173" y2="3173" /><line stroke="#999" stroke-width="1" x1="3541" x2="3485" y1="3173" y2="3237" /><line stroke="#999" stroke-width="1" x1="3093" x2="3541" y1="3109" y2="3109" /><line stroke="#999" stroke-width="1" x1="3541" x2="3541" y1="3109" y2="3173" /><line stroke="#999" stroke-width="1" x1="3413" x2="3541" y1="2981" y2="3109" /><line stroke="#999" stroke-width="1" x1="3221" x2="3285" y1="2917" y2="2917" /><line stroke="#999" stroke-width="1" x1="3285" x2="3349" y1="2917" y2="2917" /><line stroke="#999" stroke-width="1" x1="3373" x2="3317" y1="3237" y2="3197" /><line stroke="#999" stroke-width="1" x1="3189" x2="3253" y1="4901" y2="4901" /><line stroke="#999" stroke-width="1" x1="3253" x2="3253" y1="4901" y2="4933" /><line stroke="#999" stroke-width="1" x1="3253" x2="3253" y1="4933" y2="4965" /><line stroke="#999" stroke-width="1" x1="3253" x2="3253" y1="4965" y2="4997" /><line stroke="#999" stroke-width="1" x1="3253" x2="3253" y1="4997" y2="5029" /><line stroke="#999" stroke-width="1" x1="3253" x2="3253" y1="5029" y2="5061" /><line stroke="#999" stroke-width="1" x1="3253" x2="3253" y1="5061" y2="5093" /><line stroke="#999" stroke-width="1" x1="3253" x2="3253" y1="5093" y2="5125" /><line stroke="#999" stroke-width="1" x1="3253" x2="3253" y1="5125" y2="5157" /><line stroke="#999" stroke-width="1" x1="3253" x2="3253" y1="5157" y2="5189" /><line stroke="#999" stroke-width="1" x1="3253" x2="3253" y1="5189" y2="5221" /><line stroke="#999" stroke-width="1" x1="3253" x2="3253" y1="5221" y2="5253" /><line stroke="#999" stroke-width="1" x1="3253" x2="3253" y1="5253" y2="5285" /><line stroke="#999" stroke-width="1" x1="3189" x2="3189" y1="5733" y2="4901" /><line stroke="#999" stroke-width="1" x1="3445" x2="3509" y1="4901" y2="4901" /><line stroke="#999" stroke-width="1" x1="3509" x2="3509" y1="4901" y2="5733" /><line stroke="#999" stroke-width="1" x1="3445" x2="3445" y1="5285" y2="5253" /><line stroke="#999" stroke-width="1" x1="3445" x2="3445" y1="5253" y2="5221" /><line stroke="#999" stroke-width="1" x1="3445" x2="3445" y1="5221" y2="5189" /><line stroke="#999" stroke-width="1" x1="3445" x2="3445" y1="5189" y2="5157" /><line stroke="#999" stroke-width="1" x1="3445" x2="3445" y1="5157" y2="5125" /><line stroke="#999" stroke-width="1" x1="3445" x2="3445" y1="5125" y2="5093" /><line stroke="#999" stroke-width="1" x1="3445" x2="3445" y1="5093" y2="5061" /><line stroke="#999" stroke-width="1" x1="3445" x2="3445" y1="5061" y2="5029" /><line stroke="#999" stroke-width="1" x1="3445" x2="3445" y1="5029" y2="4997" /><line stroke="#999" stroke-width="1" x1="3445" x2="3445" y1="4997" y2="4965" /><line stroke="#999" stroke-width="1" x1="3445" x2="3445" y1="4965" y2="4933" /><line stroke="#999" stroke-width="1" x1="3445" x2="3445" y1="4933" y2="4901" /><line stroke="#999" stroke-width="1" x1="3253" x2="3445" y1="4901" y2="4901" /><line stroke="#999" stroke-width="1" x1="3253" x2="3445" y1="4933" y2="4933" /><line stroke="#999" stroke-width="1" x1="3253" x2="3445" y1="4965" y2="4965" /><line stroke="#999" stroke-width="1" x1="3253" x2="3445" y1="4997" y2="4997" /><line stroke="#999" stroke-width="1" x1="3253" x2="3445" y1="5029" y2="5029" /><line stroke="#999" stroke-width="1" x1="3253" x2="3445" y1="5061" y2="5061" /><line stroke="#999" stroke-width="1" x1="3253" x2="3445" y1="5093" y2="5093" /><line stroke="#999" stroke-width="1" x1="3253" x2="3445" y1="5125" y2="5125" /><line stroke="#999" stroke-width="1" x1="3253" x2="3445" y1="5157" y2="5157" /><line stroke="#999" stroke-width="1" x1="3253" x2="3445" y1="5189" y2="5189" /><line stroke="#999" stroke-width="1" x1="3253" x2="3445" y1="5221" y2="5221" /><line stroke="#999" stroke-width="1" x1="3253" x2="3445" y1="5253" y2="5253" /><line stroke="#999" stroke-width="1" x1="3253" x2="3445" y1="5285" y2="5285" /><line stroke="#999" stroke-width="1" x1="3509" x2="3189" y1="5733" y2="5733" /><line stroke="#999" stroke-width="1" x1="3253" x2="3253" y1="5285" y2="5317" /><line stroke="#999" stroke-width="1" x1="3253" x2="3445" y1="5317" y2="5317" /><line stroke="#999" stroke-width="1" x1="3445" x2="3445" y1="5317" y2="5285" /><line stroke="#999" stroke-width="1" x1="3253" x2="3253" y1="5317" y2="5349" /><line stroke="#999" stroke-width="1" x1="3253" x2="3445" y1="5349" y2="5349" /><line stroke="#999" stroke-width="1" x1="3445" x2="3445" y1="5349" y2="5317" /><line stroke="#999" stroke-width="1" x1="3157" x2="3157" y1="2877" y2="2085" /><line stroke="#999" stroke-width="1" x1="3157" x2="3029" y1="2085" y2="1893" /><line stroke="#999" stroke-width="1" x1="2549" x2="3157" y1="2437" y2="2877" /><line stroke="#999" stroke-width="1" x1="2837" x2="2549" y1="3365" y2="2437" /><line stroke="#999" stroke-width="1" x1="2117" x2="2837" y1="3917" y2="3365" /><line stroke="#999" stroke-width="1" x1="3029" x2="2117" y1="3917" y2="3917" /><line stroke="#999" stroke-width="1" x1="3317" x2="3029" y1="4725" y2="3917" /><line stroke="#999" stroke-width="1" x1="3605" x2="3317" y1="3917" y2="4725" /><line stroke="#999" stroke-width="1" x1="4501" x2="3605" y1="3917" y2="3917" /><line stroke="#999" stroke-width="1" x1="3797" x2="4501" y1="3365" y2="3917" /><line stroke="#999" stroke-width="1" x1="4085" x2="3797" y1="2437" y2="3365" /><line stroke="#999" stroke-width="1" x1="3477" x2="4085" y1="2877" y2="2437" /><line stroke="#999" stroke-width="1" x1="3477" x2="3477" y1="2085" y2="2877" /><line stroke="#999" stroke-width="1" x1="3605" x2="3477" y1="1893" y2="2085" /><line stroke="#333" stroke-width="1" x1="3605" x2="3413" y1="1893" y2="1597" /><line stroke="#333" stroke-width="1" x1="3413" x2="3413" y1="1597" y2="1573" /><line stroke="#333" stroke-width="1" x1="3221" x2="3221" y1="1573" y2="1597" /><line stroke="#333" stroke-width="1" x1="3221" x2="3029" y1="1597" y2="1893" /><line stroke="#999" stroke-width="1" x1="3285" x2="3349" y1="5541" y2="5541" /><line stroke="#999" stroke-width="1" x1="3349" x2="3413" y1="5541" y2="5541" /><line stroke="#999" stroke-width="1" x1="3413" x2="3413" y1="5541" y2="5605" /><line stroke="#999" stroke-width="1" x1="3413" x2="3413" y1="5605" y2="5669" /><line stroke="#999" stroke-width="1" x1="3413" x2="3349" y1="5669" y2="5669" /><line stroke="#999" stroke-width="1" x1="3349" x2="3285" y1="5669" y2="5669" /><line stroke="#999" stroke-width="1" x1="3285" x2="3285" y1="5669" y2="5605" /><line stroke="#999" stroke-width="1" x1="3285" x2="3285" y1="5605" y2="5541" /><line stroke="#999" stroke-width="1" x1="3285" x2="3349" y1="5605" y2="5605" /><line stroke="#999" stroke-width="1" x1="3349" x2="3413" y1="5605" y2="5605" /><line stroke="#999" stroke-width="1" x1="3349" x2="3349" y1="5669" y2="5605" /><line stroke="#999" stroke-width="1" x1="3349" x2="3349" y1="5605" y2="5541" /><line stroke="#999" stroke-width="1" x1="3253" x2="3445" y1="5509" y2="5509" /><line stroke="#999" stroke-width="1" x1="3445" x2="3445" y1="5509" y2="5701" /><line stroke="#999" stroke-width="1" x1="3445" x2="3253" y1="5701" y2="5701" /><line stroke="#999" stroke-width="1" x1="3253" x2="3253" y1="5701" y2="5509" /><line stroke="#999" stroke-width="1" x1="3269" x2="3429" y1="5685" y2="5685" /><line stroke="#999" stroke-width="1" x1="3429" x2="3429" y1="5685" y2="5525" /><line stroke="#999" stroke-width="1" x1="3429" x2="3269" y1="5525" y2="5525" /><line stroke="#999" stroke-width="1" x1="3269" x2="3269" y1="5525" y2="5685" /><line stroke="#333" stroke-width="1" x1="3669" x2="3349" y1="6757" y2="6757" /><line stroke="#333" stroke-width="1" x1="3349" x2="3349" y1="6757" y2="7141" /><line stroke="#333" stroke-width="1" x1="3349" x2="3669" y1="7141" y2="7141" /><line stroke="#333" stroke-width="1" x1="3669" x2="3669" y1="7141" y2="6757" /><line stroke="#999" stroke-width="1" x1="3461" x2="3557" y1="6997" y2="6997" /><line stroke="#999" stroke-width="1" x1="3557" x2="3557" y1="6997" y2="6901" /><line stroke="#999" stroke-width="1" x1="3557" x2="3461" y1="6901" y2="6901" /><line stroke="#999" stroke-width="1" x1="3461" x2="3461" y1="6901" y2="6997" /><line stroke="#333" stroke-width="1" x1="3461" x2="3469" y1="3397" y2="3397" /><line stroke="#333" stroke-width="1" x1="3469" x2="3461" y1="3317" y2="3317" /><line stroke="#333" stroke-width="1" x1="3493" x2="3469" y1="3317" y2="3317" /><line stroke="#333" stroke-width="1" x1="3469" x2="3493" y1="3397" y2="3381" /><line stroke="#333" stroke-width="1" x1="3493" x2="3493" y1="3381" y2="3317" /><line stroke="#999" stroke-width="1" x1="3469" x2="3469" y1="3317" y2="3397" /></svg>